/* XPM */
static char *magick[] = {
/* columns rows colors chars-per-pixel */
"16 16 124 2",
"   c #00006a",
".  c #010172",
"X  c #060e7c",
"o  c #080f7b",
"O  c #07117f",
"+  c #09107f",
"@  c #071380",
"#  c #001b8f",
"$  c #081682",
"%  c #0b1985",
"&  c #0b1d89",
"*  c #101f8c",
"=  c #0d228c",
"-  c #02269b",
";  c #042c9e",
":  c #0f2b93",
">  c #0a2b9b",
",  c #0d369f",
"<  c #11238e",
"1  c #102692",
"2  c #122a93",
"3  c #14329a",
"4  c #153a9f",
"5  c #0734a5",
"6  c #0831a2",
"7  c #0d38a5",
"8  c #0c3dac",
"9  c #143ba6",
"0  c #123da8",
"q  c #193fa2",
"w  c #0c40ad",
"e  c #0c44b1",
"r  c #0d49b5",
"t  c #0e4db9",
"y  c #1644aa",
"u  c #1940a4",
"i  c #1b47a9",
"p  c #1b49ac",
"a  c #104bb6",
"s  c #1e50af",
"d  c #1454bd",
"f  c #1d53b2",
"g  c #1e58b7",
"h  c #2045ad",
"j  c #2050b3",
"k  c #2359b7",
"l  c #235dba",
"z  c #2461be",
"x  c #165bc1",
"c  c #1b5ec3",
"v  c #1c63c6",
"b  c #1a66ca",
"n  c #0573ec",
"m  c #0f74ea",
"M  c #007efd",
"N  c #0d7ef6",
"B  c #1270e0",
"V  c #2666c0",
"C  c #286ac6",
"Z  c #2a72d9",
"A  c #356cc2",
"S  c #2278e0",
"D  c #217eeb",
"F  c #4679ca",
"G  c #0680f6",
"H  c #0083ff",
"J  c #058cff",
"K  c #0f85ff",
"L  c #0c8aff",
"P  c #108dff",
"I  c #1b88f6",
"U  c #1c91ff",
"Y  c #1f9aff",
"T  c #228af7",
"R  c #288ef5",
"E  c #2493ff",
"W  c #269aff",
"Q  c #2997ff",
"!  c #299bff",
"~  c #3d83e0",
"^  c #3590ef",
"/  c #3693f7",
"(  c #3996f9",
")  c #3f9df7",
"_  c #3c9fff",
"`  c #3da5ff",
"'  c #4897ed",
"]  c #4498f0",
"[  c #4a9df5",
"{  c #4b9df8",
"}  c #569de9",
"|  c #45a6ff",
" . c #44aaff",
".. c #4aa7ff",
"X. c #4cacff",
"o. c #52a0f0",
"O. c #52a7f9",
"+. c #53b2ff",
"@. c #59b4ff",
"#. c #61a8f2",
"$. c #66b0f7",
"%. c #66b5ff",
"&. c #6ab7ff",
"*. c #6cbbff",
"=. c #71b8fa",
"-. c #7abcf9",
";. c #91beef",
":. c #85c5ff",
">. c #83caff",
",. c #8cc6fc",
"<. c #8bcaff",
"1. c #9acaf8",
"2. c #9ed7ff",
"3. c #a5d4ff",
"4. c #acd7ff",
"5. c #addaff",
"6. c #b4d5f4",
"7. c #bfe1ff",
"8. c #c4e6ff",
"9. c #cbe4fe",
"0. c #cbe8ff",
"q. c #e6f5ff",
"w. c #f1fdff",
"e. c #faffff",
/* pixels */
"q y l A z l z z s = 3 q i d v z ",
", F 6.9.;.C z z s = 3 4 v ,.=.v ",
"y 1.w.q.q.} g z i = : d ,.e.2.b ",
"j 2.0.6.8.#.f k = & r -.0.0.>.v ",
"p >.4.3.3.o.f 3 O w $.5.3.4.*.d ",
"y *.,.:.<.] i O 5 O.<.,.:.,.@.d ",
"0 +.*.%.&.^ $ ; ] *.%.%.%.*. .d ",
"7 ` X...X.S # R X.| | | | X.! t ",
"6 Y Q Q ! B # I W E E E U U J r ",
"- J L L J n + - G J L H H H H e ",
"- H H H H n 2 . - M H M M H H 8 ",
"- L K K P m 1 $   - G P K K L 8 ",
"> ! E E E D & = .   > T E E E 0 ",
"& ( | _ | Z % = $ .   3 / ` ` 9 ",
". h ' [ ~ 2 @ % @ . .   3 [ [ 1 ",
". . % * @ . @ @ X . . .   < < . "
};
