/* XPM */
static char *magick[] = {
/* columns rows colors chars-per-pixel */
"16 16 98 2",
"   c #00006b",
".  c #010273",
"X  c #040877",
"o  c #030b7b",
"O  c #05107e",
"+  c #051584",
"@  c #06198a",
"#  c #081484",
"$  c #0a1c86",
"%  c #0b1c88",
"&  c #0c238d",
"*  c #00249c",
"=  c #092490",
"-  c #0d2a94",
";  c #0f319a",
":  c #10278f",
">  c #112a93",
",  c #112c9a",
"<  c #13349b",
"1  c #15399e",
"2  c #0034a8",
"3  c #1435a1",
"4  c #1439a3",
"5  c #183fa8",
"6  c #1440a4",
"7  c #1747aa",
"8  c #1941a4",
"9  c #1c44ab",
"0  c #1d4cad",
"q  c #1b4cb2",
"w  c #1f51af",
"e  c #1d55b5",
"r  c #1b53b9",
"t  c #1e58b7",
"y  c #1d5aba",
"u  c #2144ad",
"i  c #204eae",
"p  c #244eb3",
"a  c #2354b4",
"s  c #235bb7",
"d  c #225fbc",
"f  c #2857bb",
"g  c #2a5cbe",
"h  c #2562be",
"j  c #015cd5",
"k  c #0d67dd",
"l  c #1468cf",
"z  c #1f60c1",
"x  c #1e64ca",
"c  c #1564d0",
"v  c #176bd2",
"b  c #0e70e7",
"n  c #147bec",
"m  c #2464c3",
"M  c #2b63c3",
"N  c #2e6ac9",
"B  c #2472d3",
"V  c #2577d9",
"C  c #257cdf",
"Z  c #2977d5",
"A  c #207de3",
"S  c #038aff",
"D  c #0c86ff",
"F  c #0e8bff",
"G  c #0195ff",
"H  c #128cff",
"J  c #1e84f0",
"K  c #1691ff",
"L  c #1e92ff",
"P  c #2f97ff",
"I  c #2c9aff",
"U  c #3197ff",
"Y  c #339aff",
"T  c #389fff",
"R  c #34a4ff",
"E  c #3ca0ff",
"W  c #5a8cd8",
"Q  c #46a4ff",
"!  c #41aaff",
"~  c #51aaff",
"^  c #55b1ff",
"/  c #5db2ff",
"(  c #6a96db",
")  c #6d9bdf",
"_  c #6f9fe0",
"`  c #65a1e7",
"'  c #66b5ff",
"]  c #69b7ff",
"[  c #72a4e5",
"{  c #72bcff",
"}  c #77c0ff",
"|  c #8fcbfe",
" . c #97cdfd",
".. c #99cefe",
"X. c #99d5ff",
"o. c #a4d6ff",
"O. c #aad9ff",
"+. c #d7eeff",
/* pixels */
"h h h h h s s m h 7 8 < - % O . ",
"h m h h h t B  . .x < < : % O . ",
"h h h h t V | +.+. .x - : & O . ",
"h h h s C { o.X...o.{ x & % O . ",
"h h s n ^ { ] ' ' ] { ~ c + o . ",
"h h n I E Y Y Y Y P L H S j o   ",
"m J H H F F F H H D D D D F k o ",
"m Y Y U U P P U U U Y Y Y Y R @ ",
"a m N M M g f a p p u 9 9 u > . ",
"i 0 w 7 8 1 ; - & $ + o X . . . ",
"h h h t e 0 7 4 3 ; - = @ O X . ",
"h h Z ` [ [ [ [ ) ) ( ( W 9 o . ",
"s l / O.O.O.o.o.o.o.o.o.X.R *   ",
"w v ! / ~ Q E E Q Q Q Y F G 2   ",
"i r J I L H K K K K K K K b +   ",
"0 0 0 e q q 9 6 4 3 , , - # . . "
};
