/* XPM */
static char *magick[] = {
/* columns rows colors chars-per-pixel */
"16 16 124 2",
"   c #00006e",
".  c #010172",
"X  c #020877",
"o  c #060d7b",
"O  c #06117e",
"+  c #020f81",
"@  c #051282",
"#  c #041788",
"$  c #041c8c",
"%  c #091683",
"&  c #0c1a87",
"*  c #0d1b89",
"=  c #0e228c",
"-  c #062493",
";  c #03259a",
":  c #062d9c",
">  c #0a2999",
",  c #0b339d",
"<  c #10278f",
"1  c #122d94",
"2  c #122f9a",
"3  c #182d97",
"4  c #192f98",
"5  c #13339b",
"6  c #17399e",
"7  c #0734a4",
"8  c #0c36a1",
"9  c #0b3dab",
"0  c #113ba4",
"q  c #193da3",
"w  c #0f42ae",
"e  c #0d44b1",
"r  c #0f49b5",
"t  c #1642a6",
"y  c #1443aa",
"u  c #1448ae",
"i  c #1b43a5",
"p  c #1f43ac",
"a  c #1e4bab",
"s  c #154cb2",
"d  c #104fb9",
"f  c #1551b6",
"g  c #1555bc",
"h  c #1659bf",
"j  c #1d5abb",
"k  c #224cb3",
"l  c #2051af",
"z  c #2257b4",
"x  c #225ebb",
"c  c #285ebc",
"v  c #2662be",
"b  c #2b61be",
"n  c #175cc3",
"m  c #1b62c6",
"M  c #1b66cb",
"N  c #0374ef",
"B  c #0d76ee",
"V  c #0175f2",
"C  c #067bf2",
"Z  c #0f7af2",
"A  c #2365c4",
"S  c #2b6ac5",
"D  c #3472ca",
"F  c #2e7ee4",
"G  c #4879cb",
"H  c #0082ff",
"J  c #068cff",
"K  c #0f85ff",
"L  c #0b89ff",
"P  c #108dff",
"I  c #1b85f2",
"U  c #1b96ff",
"Y  c #1c98ff",
"T  c #2283f2",
"R  c #2492ff",
"E  c #279aff",
"W  c #2997ff",
"Q  c #2b9aff",
"!  c #3184e9",
"~  c #308ef0",
"^  c #3493f5",
"/  c #3794f8",
"(  c #399bff",
")  c #31a2ff",
"_  c #3ea4ff",
"`  c #4e89d7",
"'  c #4491ed",
"]  c #449af3",
"[  c #499bf2",
"{  c #45abff",
"}  c #4aa7ff",
"|  c #4daaff",
" . c #57a2f2",
".. c #53aeff",
"X. c #58a6f5",
"o. c #55b0ff",
"O. c #59b5ff",
"+. c #6aacf2",
"@. c #67b5ff",
"#. c #6cb0f5",
"$. c #6cbaff",
"%. c #75adee",
"&. c #71b0f2",
"*. c #7fb8f4",
"=. c #80bbf7",
"-. c #84c5ff",
";. c #82caff",
":. c #8bc8ff",
">. c #92c6f9",
",. c #93c8fa",
"<. c #a2caf5",
"1. c #a4d4ff",
"2. c #acd7ff",
"3. c #a8d8ff",
"4. c #b7d7f5",
"5. c #b6d9f9",
"6. c #bee0ff",
"7. c #c5e6ff",
"8. c #c7e9ff",
"9. c #cae5ff",
"0. c #e4f2ff",
"q. c #e9f7ff",
"w. c #e9faff",
"e. c #f0fbff",
/* pixels */
"v x S D j t 6 6 v v x A D c t i ",
"j ` 5.8.<.b 5 6 v v D <.8.4.G , ",
"m ,.w.0.w.%., 5 x j &.w.0.e.,.w ",
"M -.9.6.7.*.7 1 z h *.7.6.9.;.r ",
"m $.2.1.3.+.: = l g #.1.1.2.$.w ",
"n O.:.-.:. .> = a f X.:.-.:.O.w ",
"h { $.@.$.] - & i s ] $.@.$.{ 9 ",
"g ) } } | ~ - % i u ^ } } | ) 7 ",
"d U E W E I $ o 6 y I Q E Q Y 7 ",
"r J L L J C # X 5 0 C J L L J : ",
"e H C H H N @ . 1 6 V H H H H ; ",
"y L K K L B + . < , Z L K P L ; ",
"y E R R R T + . = 2 T R R R E > ",
"5 / _ ( _ F . . & = ! _ ( _ ^ % ",
"@ k [ ..' 2   . & @ q ' ..[ p . ",
"O X * 3 &   . . & % X & 3 *   . "
};
