/* XPM */
static char *magick[] = {
/* columns rows colors chars-per-pixel */
"16 16 80 1",
"  c #00006d",
". c #000172",
"X c #040b7b",
"o c #09137f",
"O c #011486",
"+ c #001689",
"@ c #051b8a",
"# c #0a1884",
"$ c #0b1b89",
"% c #0d248d",
"& c #0b2690",
"* c #0f2c99",
"= c #0f3097",
"- c #0d309d",
"; c #122d95",
": c #16399e",
"> c #0d35a1",
", c #0f3aa5",
"< c #0d39ab",
"1 c #173ca0",
"2 c #0545bd",
"3 c #0f48b1",
"4 c #0d50bc",
"5 c #1243ab",
"6 c #1a44a6",
"7 c #1d48a9",
"8 c #164db4",
"9 c #1952b5",
"0 c #1855b9",
"q c #1a5abd",
"w c #2562be",
"e c #0054cf",
"r c #1a5cc1",
"t c #0063dd",
"y c #1e62c3",
"u c #1b64ca",
"i c #0f79e8",
"p c #007fff",
"a c #177de8",
"s c #226fd5",
"d c #3470d3",
"f c #2278e0",
"g c #0183ff",
"h c #038aff",
"j c #0e86ff",
"k c #0c89ff",
"l c #1391ff",
"z c #2f81e7",
"x c #238dfb",
"c c #2494ff",
"v c #229aff",
"b c #2997ff",
"n c #2b98ff",
"m c #319fff",
"M c #399cff",
"N c #3da4ff",
"B c #4089e6",
"V c #4c94e6",
"C c #479df2",
"Z c #4aa7ff",
"A c #4caaff",
"S c #55a4f2",
"D c #51acff",
"F c #59b2ff",
"G c #64bbff",
"H c #6bb7ff",
"J c #69bbff",
"K c #72bbfe",
"L c #74c1ff",
"P c #7ac0fe",
"I c #8ac6ff",
"U c #93cbff",
"Y c #a7d4ff",
"T c #a8d5ff",
"R c #aedcff",
"E c #b1daff",
"W c #c4e6ff",
"Q c #cbe6ff",
"! c #d3edff",
"~ c white",
/* pixels */
"~~wyu976:;%#X.~~",
"~~yCRV3::;%#X.~~",
"~~rJ~!S4=;%#X.~~",
"~~qFQQWKr&%#X.~~",
"~~0AEYTEPu@oX.~~",
"~~8NUIIIULsOX.~~",
"~~8mKHHHHKGf+.~~",
"~~5vAAAZZADAaX~~",
"~~5lnnbbbblviX~~",
"~~1hkkkjhghtO ~~",
"~~>ggggpggeX .~~",
"~~*kjjjjj2. ..~~",
"~~*cxccx< ....~~",
"~~*NMZz* .....~~",
"~~$zDdX ......~~",
"~~X#;X .......~~"
};
