/* XPM */
static char *magick[] = {
/* columns rows colors chars-per-pixel */
"16 16 79 1",
"  c #000171",
". c #071384",
"X c #01168a",
"o c #051a8c",
"O c #0c1685",
"+ c #0e1e8a",
"@ c #021e90",
"# c #101e8a",
"$ c #0e218b",
"% c #012697",
"& c #0b2591",
"* c #0f2992",
"= c #0c2d9a",
"- c #11218d",
"; c #132590",
": c #122c95",
"> c #17339b",
", c #19369d",
"< c #0635a3",
"1 c #074aba",
"2 c #1442aa",
"3 c #1b41a9",
"4 c #1c49ad",
"5 c #154ab2",
"6 c #1750b5",
"7 c #1c56b9",
"8 c #204eaf",
"9 c #2354b4",
"0 c #235bbb",
"q c #285bbe",
"w c #2461bd",
"e c #2861bd",
"r c #165fc3",
"t c #1760c4",
"y c #1f63c4",
"u c #146dd6",
"i c #007fff",
"p c #2564c3",
"a c #2a64c1",
"s c #0284ff",
"d c #038aff",
"f c #0e85ff",
"g c #0e8cff",
"h c #0491ff",
"j c #188dff",
"k c #1894ff",
"l c #2492ff",
"z c #279cff",
"x c #2c9cff",
"c c #399bfe",
"v c #3ba1ff",
"b c #43a3fe",
"n c #43acff",
"m c #4ba4fb",
"M c #4ea9fd",
"N c #55b2ff",
"B c #5eb1ff",
"V c #61b3ff",
"C c #6bbdff",
"Z c #72baff",
"A c #7abeff",
"S c #70c3ff",
"D c #7fc6ff",
"F c #81c1ff",
"G c #81cbff",
"H c #88cfff",
"J c #97ccff",
"K c #9bceff",
"L c #9bd7ff",
"P c #a3d1ff",
"I c #a2d8ff",
"U c #b1daff",
"Y c #b9ddff",
"T c #b1e1ff",
"R c #cae6ff",
"E c #dceeff",
"W c #eff7ff",
"Q c #edf9ff",
"! c #f7fbff",
/* pixels */
"ewrpae0099842<*$",
"euMIUUTTUTTTLM1+",
"tbQ!WWWWWWWW!Qm%",
"yDERRRRRRRRRREH=",
"pDYUUUUUUUUUUYD*",
"wCKJJJJJJJJKKPS*",
"7NFDAAAAAAFZBBn&",
"7nVBBBBBBMlgddh%",
"7xbbbbbbxsssssdX",
"6kllllljssssssdX",
"5dddffiiiiiiisdX",
"5gffffffffffffgX",
"4zllllllllllllzo",
"3ccccccccccccvc.",
":qmNNNNNNNNNNm, ",
":*>,>>:;;-###O  "
};
