/* XPM */
static char *magick[] = {
/* columns rows colors chars-per-pixel */
"16 16 119 2",
"   c #00006a",
".  c #000071",
"X  c #040a7a",
"o  c #0a0f7b",
"O  c #07107e",
"+  c #071381",
"@  c #011c8f",
"#  c #091482",
"$  c #0b1986",
"%  c #0b1d89",
"&  c #0e238d",
"*  c #02269b",
"=  c #042d9f",
"-  c #0e2690",
";  c #0f2d94",
":  c #0a2b9b",
">  c #11218d",
",  c #112793",
"<  c #122a93",
"1  c #14329b",
"2  c #0735a5",
"3  c #0b35a1",
"4  c #0e39a6",
"5  c #0c3ead",
"6  c #163ca3",
"7  c #123da9",
"8  c #0c41ae",
"9  c #0d45b2",
"0  c #0f4bb5",
"q  c #1645ab",
"w  c #1a41a4",
"e  c #1b4aab",
"r  c #104cb6",
"t  c #1b4ab0",
"y  c #1353bc",
"u  c #1e53b2",
"i  c #1e59b8",
"p  c #2045ad",
"a  c #2151b4",
"s  c #245ebb",
"d  c #2562be",
"f  c #165cc2",
"g  c #1b5fc3",
"h  c #1c64c7",
"j  c #1b67cb",
"k  c #0573ed",
"l  c #0f74ea",
"z  c #007bf6",
"x  c #007cfc",
"c  c #0d7ef6",
"v  c #1270e0",
"b  c #2565c0",
"n  c #296bc7",
"m  c #2b72d9",
"M  c #356dc4",
"N  c #2278e0",
"B  c #217eec",
"V  c #477acb",
"C  c #0183ff",
"Z  c #078dff",
"A  c #0f85ff",
"S  c #0c89ff",
"D  c #118dff",
"F  c #1988f6",
"G  c #1c97ff",
"H  c #1f9aff",
"J  c #228af7",
"K  c #2593ff",
"L  c #2099ff",
"P  c #2b90f5",
"I  c #2997ff",
"U  c #2a99ff",
"Y  c #3d83e1",
"T  c #3590ef",
"R  c #3693f7",
"E  c #3893f5",
"W  c #3c9fff",
"Q  c #32a1ff",
"!  c #3da5ff",
"~  c #4897ed",
"^  c #439cf4",
"/  c #4a9df5",
"(  c #4b9df8",
")  c #579de9",
"_  c #40a7ff",
"`  c #46abff",
"'  c #4aa7ff",
"]  c #4ca9ff",
"[  c #52a0f0",
"{  c #53aafc",
"}  c #53b1ff",
"|  c #5bb5ff",
" . c #61a9f2",
".. c #67b1f7",
"X. c #6bb7ff",
"o. c #6cbcff",
"O. c #71bbfd",
"+. c #7bbcf9",
"@. c #91bff0",
"#. c #84c6ff",
"$. c #83caff",
"%. c #8ac5fe",
"&. c #88c8ff",
"*. c #90c6fa",
"=. c #92ccff",
"-. c #9ac9f9",
";. c #9ed7ff",
":. c #a6d5ff",
">. c #aad6ff",
",. c #b4d5f4",
"<. c #b1daff",
"1. c #bfe1ff",
"2. c #c4e6ff",
"3. c #c9e4fe",
"4. c #cde9ff",
"5. c #d1e8ff",
"6. c #e6f5ff",
"7. c #f1fdff",
"8. c #fcffff",
/* pixels */
"d h f e w 1 & u d d s d M s q w ",
"h O.*.h 6 1 & u d d n *.3.,.V 3 ",
"h ;.8.%.y ; & e d i ) 6.6.7.-.q ",
"h #.5.4.+.0 & % s u  .2.1.3.;.u ",
"f o.<.:.<...8 O 1 u [ :.:.>.$.e ",
"y | =.%.%.=.{ 2 O e ^ $.#.%.o.q ",
"y ` O.X.X.X.O.^ = $ T o.X.X.} 7 ",
"y Q { ] ' ] ] } P @ m ` ' ] ! 4 ",
"r G U I U U K L F @ v U U U L 3 ",
"9 Z S S S C C x * o k Z S Z Z = ",
"5 C C C C C x *   < k C C C C * ",
"5 S A A S c *   $ - l S A A D * ",
"7 K K K J :   . - % B I K K U : ",
"6 _ ! R 1   . # & $ m _ W ! E # ",
", / / 1   . . + $ + , Y ( ~ p   ",
"X > >   . . . X + + X + > $ . . "
};
