/* XPM */
static char *magick[] = {
/* columns rows colors chars-per-pixel */
"16 16 106 2",
"   c #00006e",
".  c #010173",
"X  c #010779",
"o  c #050d7c",
"O  c #06117e",
"+  c #061483",
"@  c #051886",
"#  c #001a8d",
"$  c #091583",
"%  c #0e1e8a",
"&  c #0c228d",
"*  c #062390",
"=  c #072c98",
"-  c #0e339d",
";  c #122691",
":  c #102a93",
">  c #152f98",
",  c #13339a",
"<  c #193a9e",
"1  c #0032a8",
"2  c #0a3ea8",
"3  c #003ab2",
"4  c #183ea3",
"5  c #0f44ae",
"6  c #0646bd",
"7  c #0944b6",
"8  c #0c49b4",
"9  c #1440a5",
"0  c #1d45a5",
"q  c #1c48a9",
"w  c #144bb4",
"e  c #104cb8",
"r  c #1d4cb3",
"t  c #1f50ae",
"y  c #1254bd",
"u  c #1859bd",
"i  c #2249b0",
"p  c #2361bd",
"a  c #0c52c4",
"s  c #015ed9",
"d  c #1554c4",
"f  c #165cc3",
"g  c #1d53c0",
"h  c #1661cd",
"j  c #1b62c6",
"k  c #1a64c8",
"l  c #1c68cd",
"z  c #0066e3",
"x  c #0c68e0",
"c  c #007fff",
"v  c #1e79e8",
"b  c #235dc6",
"n  c #2065c9",
"m  c #2568cc",
"M  c #2f66cb",
"N  c #296dcf",
"B  c #2b7cdf",
"V  c #3576d2",
"C  c #3a7cd6",
"Z  c #387cd8",
"A  c #0183fe",
"S  c #0088ff",
"D  c #0f86ff",
"F  c #0d8bff",
"G  c #118cff",
"H  c #1795ff",
"J  c #2a84e6",
"K  c #2594ff",
"L  c #229aff",
"P  c #2f9cfe",
"I  c #3789e7",
"U  c #3188ee",
"Y  c #3891ef",
"T  c #349dff",
"R  c #389fff",
"E  c #37a4ff",
"W  c #3ca2ff",
"Q  c #4695f0",
"!  c #4b9ff4",
"~  c #4da4fa",
"^  c #4badff",
"/  c #54acff",
"(  c #5dabf5",
")  c #59aeff",
"_  c #56b4ff",
"`  c #5db4fe",
"'  c #60b7ff",
"]  c #6bbcff",
"[  c #72bbff",
"{  c #78bdff",
"}  c #72c0ff",
"|  c #7bc3ff",
" . c #82cbff",
".. c #8bcaff",
"X. c #92caff",
"o. c #99cdff",
"O. c #9dd4ff",
"+. c #a5daff",
"@. c #acd8ff",
"#. c #b4dbff",
"$. c #bbe2ff",
"%. c #c4e6ff",
"&. c #d5ecff",
"*. c #daedff",
"=. c #eefaff",
"-. c #f2fdff",
/* pixels */
". . o $ & ; - 5 9 9 4 q t u j p ",
". . o $ % * C | n < 4 0 y ( _ j ",
". . o $ @ m %.-.C , < 8 ~ =.+.k ",
". . o @ h O.&.%.V : 9 Y $.*. .k ",
". . X a | $.#.+.N = J O.@.#.} j ",
".   7 ` o...X...I B ..X.X.o.` u ",
"  1 P | [ [ [ [ ] ] { ] [ { ^ u ",
"# A H / / / / / / / / / / _ E u ",
"# A S F P T T T T T T T T W L y ",
"  1 A A A D G G F F A A F G F y ",
".   3 A c c c c z s A c c c A e ",
".     6 G D D F a + x F D D F w ",
". .   . d K K K d . & v K K K w ",
".   . .   b W W b . o : U W W r ",
". . . .     M ` i . $ o > Q ~ 4 ",
"  . .   . . . % X . . $ O ; > & "
};
