/* XPM */
static char *magick[] = {
/* columns rows colors chars-per-pixel */
"16 16 107 2",
"   c #00006e",
".  c #010173",
"X  c #050875",
"o  c #050d7c",
"O  c #06107d",
"+  c #061482",
"@  c #061986",
"#  c #001a8d",
"$  c #081482",
"%  c #091885",
"&  c #0f1c8a",
"*  c #0d228d",
"=  c #062491",
"-  c #082d98",
";  c #0e349e",
":  c #122792",
">  c #102b93",
",  c #13319a",
"<  c #16389d",
"1  c #193c9f",
"2  c #0033a9",
"3  c #0a3fa9",
"4  c #003ab2",
"5  c #193ea3",
"6  c #0f44af",
"7  c #0646bd",
"8  c #0944b7",
"9  c #0c4ab5",
"0  c #1541a5",
"q  c #1a42a4",
"w  c #1c49aa",
"e  c #154bb5",
"r  c #104db9",
"t  c #1d4db3",
"y  c #1254bd",
"u  c #185bbe",
"i  c #2249b0",
"p  c #2051af",
"a  c #2461be",
"s  c #0c52c5",
"d  c #015ed9",
"f  c #1554c5",
"g  c #155bc2",
"h  c #1d53c0",
"j  c #1662cd",
"k  c #1b63c6",
"l  c #1a65c9",
"z  c #1d69cd",
"x  c #0067e3",
"c  c #0c69e0",
"v  c #007fff",
"b  c #1e79e8",
"n  c #235dc7",
"m  c #2165ca",
"M  c #2568cd",
"N  c #2f66cb",
"B  c #296ecf",
"V  c #2b7cdf",
"C  c #3576d2",
"Z  c #3b7dd6",
"A  c #387dd8",
"S  c #0183fe",
"D  c #0088ff",
"F  c #0f86ff",
"G  c #0d8bff",
"H  c #118cff",
"J  c #1795ff",
"K  c #2a84e6",
"L  c #2594ff",
"P  c #229aff",
"I  c #2f9cfe",
"U  c #3789e7",
"Y  c #3188ee",
"T  c #3891ef",
"R  c #349dff",
"E  c #389fff",
"W  c #37a4ff",
"Q  c #3ca2ff",
"!  c #4695f0",
"~  c #4b9ff4",
"^  c #4da4fa",
"/  c #4badff",
"(  c #54acff",
")  c #5cabf6",
"_  c #59aeff",
"`  c #56b4ff",
"'  c #5db4fe",
"]  c #60b7ff",
"[  c #6bbcff",
"{  c #72bbff",
"}  c #78bdff",
"|  c #72c0ff",
" . c #7bc3ff",
".. c #82caff",
"X. c #8bcaff",
"o. c #92caff",
"O. c #99cdff",
"+. c #9dd4ff",
"@. c #a5daff",
"#. c #acd8ff",
"$. c #b4dbff",
"%. c #bbe2ff",
"&. c #c4e6ff",
"*. c #d5ecff",
"=. c #daedff",
"-. c #edfaff",
";. c #f2fdff",
/* pixels */
"a k u p w 0 q 0 6 ; > * % o X   ",
"k ' ) y q 5 < m  .A = * % o X . ",
"z @.-.~ 9 1 , Z ;.&.M @ + o .   ",
"k ..=.%.T 6 > C &.*.+.j + o X . ",
"k { $.$.+.K - B #.#.$. .s X X . ",
"g ' O.o.o...V U X.o.o.O.' 8   . ",
"g / } { { } [ [ { { { {  .I 2   ",
"g W _ ( ( ( ( ( ( ( ( ( / J S # ",
"y P E R R R R W E E R I F D S # ",
"y G H F D S G G H H F S S S 2   ",
"r S S v v S d x v v v v S 4     ",
"e F F F F c + s F F F H 7       ",
"e P L L b * X f L L L f .   . . ",
"t Q Q Y > o . n E E u   . .   . ",
"5 ^ ! , O $ . i ' N     . . . . ",
"* , : O $ . . X & X   . .   . . "
};
