/* XPM */
static char *magick[] = {
/* columns rows colors chars-per-pixel */
"16 16 56 1",
"  c #000000",
". c #0b0b0b",
"X c #101010",
"o c #272727",
"O c #3f3f3f",
"+ c #3f3f40",
"@ c #404041",
"# c #707071",
"$ c #3eaab3",
"% c #00c0c0",
"& c cyan",
"* c #43b2bc",
"= c #7f8281",
"- c #53c9d4",
"; c #60c1cd",
": c #6ec4cd",
"> c #68c6d1",
", c #71c6ce",
"< c #7ac4cb",
"1 c #7cc9cd",
"2 c #76cbd5",
"3 c #79cad4",
"4 c #76d7e3",
"5 c #78d8e3",
"6 c #85ccd2",
"7 c #89c8d0",
"8 c #90d5db",
"9 c #90d9df",
"0 c #8bd7e0",
"q c #8adbe5",
"w c #8fdfe8",
"e c #95e1ea",
"r c #a8d1d5",
"t c #add6da",
"y c #b6d9dd",
"u c #b9dade",
"i c #aadde3",
"p c #b9dbe0",
"a c #ade4e8",
"s c #afe9f0",
"d c #b0eaef",
"f c #baecef",
"g c #beedf1",
"h c #c3c3c3",
"j c #c1d4d6",
"k c #ced8d9",
"l c #c4e9ed",
"z c #caeaed",
"x c #cdecf0",
"c c #d7e5e6",
"v c #d7e5e8",
"b c #d2f1f4",
"n c #ddf4f5",
"m c #e3f3f3",
"M c #eafbfa",
"N c None",
/* pixels */
"NNNNoO.NNNNNNNNN",
"NN+ kvj +NNNNNNN",
"N+=mnlia=+NNNNNN",
"N mMng9:f NNNNNN",
"Xybnbdw,3u.NNNNN",
"oclgde4;6z.NNNNN",
".ri0q5-*1t NNNNN",
"N g2:>*$g NNNNNN",
"NO=g8<7g= &NNNNN",
"NNO uzt +&  NNNN",
"NNNN . N% #h NNN",
"NNNNNNNNN +#h NN",
"NNNNNNNNNN +#h N",
"NNNNNNNNNNN +#h ",
"NNNNNNNNNNNN +# ",
"NNNNNNNNNNNNN  N"
};
