/* XPM */
static char *magick[] = {
/* columns rows colors chars-per-pixel */
"16 16 38 1",
"  c black",
". c gray7",
"X c #1f1f1e",
"o c #222222",
"O c #323231",
"+ c #4d321a",
"@ c #434343",
"# c #4a4a49",
"$ c #524f4c",
"% c #53504d",
"& c #565350",
"* c #5c5a57",
"= c #686867",
"- c #6f6f6e",
"; c #b77d44",
": c #c4864e",
"> c #e5a566",
", c #f8ac62",
"< c #8d8d8b",
"1 c #949493",
"2 c #9c9c9b",
"3 c #a0a09f",
"4 c #a4a4a3",
"5 c #acacab",
"6 c #b5b5b4",
"7 c #bcbcbb",
"8 c #fdc383",
"9 c #fec88a",
"0 c #fed39a",
"q c #c3c3c2",
"w c #cbcbcb",
"e c #d4d4d3",
"r c #dcdcdb",
"t c #e3e3e2",
"y c #e8e8e7",
"u c #ececec",
"i c gray96",
"p c None",
/* pixels */
"pppppp    pppppp",
"ppppp  p    p pp",
"pppp ppppp    pp",
"ppppppppppp   pp",
"pppppppppp    pp",
"p++++ppppppppppp",
"+>08>+++++++pppp",
"+098,,,,,,,, ppp",
"+98+%%%*%%%%%   ",
"+8:%iiuyrewq766O",
"+8+rryyreq7521#p",
"+;%ertrewq654=op",
"++wweeewq7541#pp",
"+%w7qwq76542-.pp",
"+7455554321<#ppp",
"o#######@@@OXppp"
};
