/* XPM */
static const char * mutabletag[] = {
"22 20 228 2",
"  	c None",
". 	c #E98583",
"+ 	c #E25C59",
"@ 	c #D81F1E",
"# 	c #DE1310",
"$ 	c #E15A5D",
"% 	c #DF5258",
"& 	c #E41819",
"* 	c #E82F2D",
"= 	c #D62127",
"- 	c #D31D25",
"; 	c #E14846",
"> 	c #F39794",
", 	c #D1262A",
"' 	c #D84142",
") 	c #DA4641",
"! 	c #CF2127",
"~ 	c #F0A4A2",
"{ 	c #FCE0DC",
"] 	c #DE6A6A",
"^ 	c #D12220",
"/ 	c #E17470",
"( 	c #D2211E",
"_ 	c #DF6664",
": 	c #FCE1E1",
"< 	c #FCF7F6",
"[ 	c #F3C0B8",
"} 	c #D43A35",
"| 	c #D13332",
"1 	c #DE3B44",
"2 	c #D83434",
"3 	c #F2B7AE",
"4 	c #FBF3F6",
"5 	c #FBF9FB",
"6 	c #F8ECE3",
"7 	c #E88D82",
"8 	c #CF211F",
"9 	c #DD5E5B",
"0 	c #E87874",
"a 	c #D51E26",
"b 	c #EA7277",
"c 	c #FCE5E1",
"d 	c #FDFAFB",
"e 	c #EFE8EE",
"f 	c #F8F6F3",
"g 	c #F5CEC6",
"h 	c #DC514B",
"i 	c #D42B27",
"j 	c #D23738",
"k 	c #D5393D",
"l 	c #F5BABB",
"m 	c #FCF8F5",
"n 	c #C3BDC1",
"o 	c #504C51",
"p 	c #888B89",
"q 	c #DED8CF",
"r 	c #EBA096",
"s 	c #C9241F",
"t 	c #DA4F4F",
"u 	c #E66362",
"v 	c #D31D27",
"w 	c #EC9393",
"x 	c #C5B9B4",
"y 	c #AEB0AC",
"z 	c #DFDADE",
"A 	c #6E6E70",
"B 	c #5C615F",
"C 	c #434743",
"D 	c #B19C96",
"E 	c #E47570",
"F 	c #D31E21",
"G 	c #EA7679",
"H 	c #DB2C2C",
"I 	c #E34A51",
"J 	c #E2B8B1",
"K 	c #686E65",
"L 	c #8C8F8D",
"M 	c #F4F4F5",
"N 	c #F2F5F6",
"O 	c #E5EAE9",
"P 	c #899291",
"Q 	c #6B6969",
"R 	c #E2A5A3",
"S 	c #DE4243",
"T 	c #DB3032",
"U 	c #E25F5B",
"V 	c #D72728",
"W 	c #ED928F",
"X 	c #CCC3B9",
"Y 	c #5B605C",
"Z 	c #C8C8C9",
"` 	c #F6FAFA",
" .	c #F8FCFB",
"..	c #F9F8F9",
"+.	c #D7DBDB",
"@.	c #A9ABAD",
"#.	c #E7D2D3",
"$.	c #EB8987",
"%.	c #D72628",
"&.	c #E26265",
"*.	c #CF2C2C",
"=.	c #E35A58",
"-.	c #F8CFC9",
";.	c #CCCEC5",
">.	c #575A57",
",.	c #B8B7B9",
"'.	c #F0F8F6",
").	c #FAFDFC",
"!.	c #FAF5F6",
"~.	c #D7D8D7",
"{.	c #BEC0C0",
"].	c #EDEBEC",
"^.	c #F4CECA",
"/.	c #DE5A56",
"(.	c #D6282B",
"_.	c #DA5350",
":.	c #CD3232",
"<.	c #ED9F9C",
"[.	c #FDF1ED",
"}.	c #E2E5E1",
"|.	c #5E5F5F",
"1.	c #8D8D90",
"2.	c #EAF0F0",
"3.	c #F1F1F2",
"4.	c #D9D6D6",
"5.	c #7B7C7B",
"6.	c #686B6A",
"7.	c #E1E5E5",
"8.	c #F7F2F0",
"9.	c #EEA6A2",
"0.	c #D9312F",
"a.	c #DA4645",
"b.	c #CF2522",
"c.	c #E2635F",
"d.	c #F9D9D3",
"e.	c #FDFBFA",
"f.	c #F5F7F7",
"g.	c #B3B9B8",
"h.	c #BEC2C3",
"i.	c #B9BBBD",
"j.	c #8A8A8C",
"k.	c #6D6E6E",
"l.	c #656865",
"m.	c #B3B9B4",
"n.	c #F3F7F6",
"o.	c #FAFAFB",
"p.	c #FBE1DF",
"q.	c #E36964",
"r.	c #CE1F1C",
"s.	c #E17674",
"t.	c #D24541",
"u.	c #D23833",
"v.	c #F1A9A0",
"w.	c #FDF0E8",
"x.	c #FDFAF4",
"y.	c #FCFAF5",
"z.	c #F6F6F0",
"A.	c #F4F5EF",
"B.	c #CAC8C6",
"C.	c #95928E",
"D.	c #A1A19B",
"E.	c #C9CAC3",
"F.	c #F3F2F0",
"G.	c #FCF8F9",
"H.	c #FDF7F7",
"I.	c #FEF4EE",
"J.	c #F6BAAF",
"K.	c #D73E35",
"L.	c #D2312F",
"M.	c #DA1413",
"N.	c #E62F2C",
"O.	c #F3736F",
"P.	c #F2817C",
"Q.	c #EE8177",
"R.	c #EB7E73",
"S.	c #E97C71",
"T.	c #E97D71",
"U.	c #E6786C",
"V.	c #DE6F64",
"W.	c #E4786B",
"X.	c #E97B70",
"Y.	c #E97670",
"Z.	c #E86F6C",
"`.	c #E56964",
" +	c #DF6860",
".+	c #E15D51",
"++	c #DE261E",
"@+	c #D8100C",
"#+	c #D5615A",
"$+	c #D5120E",
"%+	c #DB0F0E",
"&+	c #D61918",
"*+	c #D71818",
"=+	c #D81814",
"-+	c #DA1914",
";+	c #D91914",
">+	c #D91813",
",+	c #D91711",
"'+	c #D81713",
")+	c #DB1B15",
"!+	c #DB1D14",
"~+	c #D91B11",
"{+	c #D81711",
"]+	c #D91310",
"^+	c #D71511",
"/+	c #D41612",
"(+	c #D9120F",
"_+	c #D31B17",
":+	c #E07C75",
"<+	c #E57E73",
"[+	c #E36C62",
"}+	c #E1706B",
"|+	c #E2716E",
"1+	c #E17773",
"2+	c #E37C76",
"3+	c #E57E79",
"4+	c #E57F7A",
"5+	c #E4837E",
"6+	c #E68C87",
"7+	c #E88E88",
"8+	c #E68C85",
"9+	c #E58D85",
"0+	c #E79186",
"a+	c #EA918B",
"b+	c #EE9393",
"c+	c #EA9594",
"d+	c #EC9893",
"e+	c #EFA4A4",
"                                            ",
"                    . +                     ",
"                    @ # $                   ",
"                  % & * =                   ",
"                  - ; > , '                 ",
"                ) ! ~ { ] ^ /               ",
"                ( _ : < [ } |               ",
"              1 2 3 4 5 6 7 8 9             ",
"            0 a b c d e f g h i             ",
"            j k l m n o p q r s t           ",
"          u v w x y z A B C D E F G         ",
"          H I J K L M N O P Q R S T         ",
"        U V W X Y Z `  ...+.@.#.$.%.&.      ",
"        *.=.-.;.>.,.'.).!.~.{.].^./.(.      ",
"      _.:.<.[.}.|.1.2.3.4.5.6.7.8.9.0.a.    ",
"      b.c.d.e.f.g.h.i.j.k.l.m.n.o.p.q.r.s.  ",
"    t.u.v.w.x.y.z.A.B.C.D.E.F.G.H.I.J.K.L.  ",
"    M.N.O.P.Q.R.S.T.U.V.W.X.Y.Z.`. +.+++@+#+",
"    $+%+&+*+=+-+;+>+,+'+)+!+~+{+]+^+/+(+_+:+",
"    <+[+}+|+1+2+3+4+5+6+7+8+9+0+a+b+c+d+e+  "};
