/* XPM */
static char *magick[] = {
/* columns rows colors chars-per-pixel */
"22 22 11 1",
"  c black",
". c gray19",
"X c navy",
"o c #008000",
"O c #800000",
"+ c #c00000",
"@ c #800080",
"# c #a0a0a4",
"$ c #ffdca8",
"% c #c0c0c0",
"& c None",
/* pixels */
"&&&&&&&&&&&&&&&&&&&&&&",
"&&&&&.....&&&&&&&&&&&&",
"&&&&.$%$%$..&&&&&&&&&&",
"&&&.$%$%+%$%.&&&&&&&&&",
"&&&.%$#+#+#$%.&&&&&&&&",
"&&.%$%+#+#+%$.&&&&&&&&",
"&&.$%$#+#+#$%.&&&&&&&&",
"&.$#o#$#+#+%$.&&&&&&&&",
"&.%o#o%$%$%$%.&&&&&&&&",
"&.$#o#o%$%&..%.&&&&&&&",
"&.%o%o%$%$.&&.%...&&&&",
"&&.%O%O%$%.&&.$%$%$&&&",
"&&.$%O%O%$%..&%@$@%.&&",
"&&.%O%O%$%X%&%$#@#$.&&",
"&&&.%O%O%X%X%$%@#@%.&&",
"&&&&.%$%X%X%X%$%@%$.&&",
"&&&&&.%$%X%X%$%$%$.&&&",
"&&&&&&.%$%X%$%$%$.&&&&",
"&&&&&&&..$%$%.%$.&&&&&",
"&&&&&&&&&.......&&&&&&",
"&&&&&&&&&&&&&&&&&&&&&&",
"&&&&&&&&&&&&&&&&&&&&&&"
};
