/* XPM */
static char *annCircle[] = {
/* columns rows colors chars-per-pixel */
"22 22 5 1",
"  c Gray0",
". c #313031",
"X c #c5c6c5",
"o c #d5d6d5",
"O c None",
/* pixels */
"OOOOOOOOOOOOOOOOOOOOOO",
"OOOOOOOOOOOOOOOOOOOOOO",
"OOOOOOOOOOOOOOOOOOOOOO",
"OOOOOOOOOOOOOOOOOOOOOO",
"OOOOOOOO     OOOOOOOOO",
"OOOOOO  OOOOO  OOOOOOO",
"OOOOO OOOOOOOOO OOOOOO",
"OOOO OOOOOOOOOOO OOOOO",
"OOOO OOOOOOOOOOO OOOOO",
"OOO OOOOOOOOOOOOO OOOO",
"OOO OOOOOOOOOOOOO OOOO",
"OOO OOOOOOOOOOOOO OOOO",
"OOO OOOOOOOOOOOOO OOOO",
"OOOO OOOOOOOOOOO OOOOO",
"OOOO OOOOOOOOOOO OOOOO",
"OOOOO OOOOOOOOO OOOOOO",
"OOOOOO  OOOOO  OOOOOOO",
"OOOOOOOO     OOOOOOOOO",
"OOOOOOOOOOOOOOOOOOOOOO",
"OOOOOOOOOOOOOOOOOOOOOO",
"OOOOOOOOOOOOOOOOOOOOOO",
"OOOOOOOOOOOOOOOOOOOOOO"
};
