/* XPM */
static char *annRect[] = {
/* columns rows colors chars-per-pixel */
"22 22 5 1",
"  c Gray0",
". c #313031",
"X c #c5c6c5",
"o c #d5d6d5",
"O c None",
/* pixels */
"OOOOOOOOOOOOOOOOOOOOOO",
"OOOOOOOOOOOOOOOOOOOOOO",
"OOOOOOOOOOOOOOOOOOOOOO",
"OOOOOOOOOOOOOOOOOOOOOO",
"OOOOOOOOOOOOOOOOOOOOOO",
"OOOOOOOOOOOOOOOOOOOOOO",
"OO                 OOO",
"OO OOOOOOOOOOOOOOO OOO",
"OO OOOOOOOOOOOOOOO OOO",
"OO OOOOOOOOOOOOOOO OOO",
"OO OOOOOOOOOOOOOOO OOO",
"OO OOOOOOOOOOOOOOO OOO",
"OO OOOOOOOOOOOOOOO OOO",
"OO OOOOOOOOOOOOOOO OOO",
"OO OOOOOOOOOOOOOOO OOO",
"OO                 OOO",
"OOOOOOOOOOOOOOOOOOOOOO",
"OOOOOOOOOOOOOOOOOOOOOO",
"OOOOOOOOOOOOOOOOOOOOOO",
"OOOOOOOOOOOOOOOOOOOOOO",
"OOOOOOOOOOOOOOOOOOOOOO",
"OOOOOOOOOOOOOOOOOOOOOO"
};
