/* XPM */
static char *annText[] = {
/* columns rows colors chars-per-pixel */
"15 15 16 1",
"  c Gray0",
". c #080c08",
"X c #181818",
"o c #313031",
"O c #414041",
"+ c #4a4c4a",
"@ c #626562",
"# c #737173",
"$ c #7b7d7b",
"% c #8b8d8b",
"& c #9c999c",
"* c #a4a5a4",
"= c #bdbebd",
"- c #c5c6c5",
"; c #d5d6d5",
": c None",
/* pixels */
":::::::::::::::",
":::::::::::::::",
"::::::::::#o*::",
":::::::::&. &::",
"::::::::=.@ &::",
"::::::::oo: &::",
":::::::@.=: &::",
"::::::* %:: &::",
":::::=Xo&&& &::",
":::::O      &::",
"::::#.*:::: &::",
":::* $::::& &::",
"::=X+:::::& &::",
":::::::::::::::",
":::::::::::::::"
};
