/* XPM */
static char* help_contents[] = {
/* columns rows colors chars-per-pixel */
"22 22 117 2",
"   c Gray0",
".  c #020202",
"X  c #040404",
"o  c #080000",
"O  c #1e1e1e",
"+  c #022e2e",
"@  c #023236",
"#  c #023636",
"$  c #063232",
"%  c #0a6b69",
"&  c #1c7674",
"*  c #1a7c76",
"=  c #6c604b",
"-  c #70644f",
";  c #746853",
":  c #786c57",
">  c #7b6f5b",
",  c #7f735f",
"<  c #7e7a62",
"1  c #0f8a84",
"2  c #268782",
"3  c #328381",
"4  c #338f8a",
"5  c #3d9893",
"6  c #479d99",
"7  c #50a29d",
"8  c #58a5a1",
"9  c #5fa8a4",
"0  c #66aaa6",
"q  c #6baba7",
"w  c #6faca8",
"e  c #76aca8",
"r  c #837763",
"t  c #867a67",
"y  c #8a7e62",
"u  c #8a7e6b",
"i  c #8e826f",
"p  c #928666",
"a  c #968666",
"s  c #9a8a6a",
"d  c #9a8a6e",
"f  c #918673",
"g  c #9a8d71",
"h  c #9a8e72",
"j  c #9b8e72",
"k  c #9b8f74",
"l  c #9e9276",
"z  c #9a927a",
"x  c #a19377",
"c  c #a1957b",
"v  c #a2967e",
"b  c #aa9a7e",
"n  c #b2a27e",
"m  c #83b4b3",
"M  c #a69a80",
"N  c #aa9e86",
"B  c #aea28a",
"V  c #b2a68e",
"C  c #b2a790",
"Z  c #bdb096",
"A  c #c2b69a",
"S  c #c6b69a",
"D  c #ceba92",
"F  c #d6be92",
"G  c #dabe96",
"H  c #c2b6a2",
"J  c #c6beaa",
"K  c #c5bfb2",
"L  c #dac296",
"P  c #d6c2a2",
"I  c #d2c6ae",
"U  c #decaa2",
"Y  c #deceae",
"T  c #e2ceae",
"R  c #e6d6b6",
"E  c #e2d2ba",
"W  c #ead6b2",
"Q  c #ded6c2",
"!  c #ded6c6",
"~  c #e2daca",
"^  c #e7decd",
"/  c #eadac5",
"(  c #eedec2",
")  c #f2dec2",
"_  c #eae2ca",
"`  c #eee2d2",
"'  c #eee6d5",
"]  c #eee6d6",
"[  c #f6ead6",
"{  c #f0e8d9",
"}  c #f6eede",
"|  c #faeede",
" . c #f1ece2",
".. c #f6f2e2",
"X. c #f6f2e6",
"o. c #f5f1e9",
"O. c #f6f2ea",
"+. c #faf2e2",
"@. c #faf2e6",
"#. c #faf2ea",
"$. c #faf6ea",
"%. c #faf6ee",
"&. c #fbf6ee",
"*. c #f2f2f0",
"=. c #f6f5f5",
"-. c #f6f6f6",
";. c #faf6f2",
":. c #fafaf2",
">. c #fafaf6",
",. c #fefaf2",
"<. c #fefaf6",
"1. c Gray98",
"2. c #fefafa",
"3. c #fefefa",
"4. c #fdfdfc",
"5. c #fefefe",
"6. c None",
/* pixels */
". # 6.6.6.6.6.6.6.6.6.6.6.6.6.6.6.6.6.6.6.6.",
". e . 6.6.6.6.6.6.6.6.6.6.6.6.6.6.6.6.6.6.6.",
". m & . 6.6.6.6.6.6.6.6.6.6.6.. O 6.6.6.6.6.",
". m & 4.. 6.6.6.6.6.6.6.6.. . { = 6.6.6.6.6.",
". w & 4.1.. 6.6.6.6.6.. . { 4.<.- 6.6.6.6.6.",
". q & 4.4.4.. 6.6.6.. { 4.4.4.>.; . . . 6.6.",
". 0 & 4.4.4.1.. 6.. ) @.4.4.2.2.: C ~ %.. 6.",
". 9 & 4.4.4.4.-.. L ) @.4.4.4.>.> V ~ %.% . ",
". 8 & 4.4.4.4.=.N G ) X.>.4.3.;., C ! %.% . ",
". 7 & 4.4.4.4.*.M L ( @.>.<.>.>.r C Q %.% . ",
". 6 & 4.4.4.4.O.c L ) @.:.;.;.;.t C Q %.% . ",
". 5 & 3.2.2.;. .x G ) +.;.,.,.%.u C Q %.% . ",
". 4 & ;.%.%.O.' k G ) @.$.#.%.$.i C ! %.% . ",
". 2 & +...| | _ j G ) ..#.$.#.#.f C ! %.% . ",
". * & R [ [ [ / j G ) @.X.@.@.@.z V ! %.% . ",
"6.. 1 % R ` ( E d G ) +.} @.A l B J ! %.% . ",
"6.6.o 1 % Y W T s G ( ' ^ z V H I ! { %.% . ",
"6.6.6.o 1 % P U a F ) v b S ! { %.%.%.%.% . ",
"6.6.6.6.. 1 % D a L j n I K K K K K K Z % . ",
"6.6.6.6.6.. 1 % y p < 3 3 3 3 3 3 3 3 3 3 . ",
"6.6.6.6.6.6.. 1 % % 1 . . . . . . . . . . . ",
"6.6.6.6.6.6.6.@ $ $ + 6.6.6.6.6.6.6.6.6.6.6."
};
