/* XPM */
static char*ok[]={
"16 16 6 1",
"d c #00ff00",
"b c #004000",
"# c #c0c0ff",
"a c #000000",
". c None",
"c c #ffffff",
".....#####......",
"...#######......",
"..#######.abbc..",
".#######.abbbc..",
".######.abbdbc..",
"#######.abdbc.#.",
"######.abdbc.##.",
"##.###.abbc.###.",
"#.ac#.abdc.####.",
"#abc..abbc.####.",
"..bbcabbc.####..",
".#.bcbbc.#####..",
"...abbc.#####...",
"....bbc#####....",
"....ac.###......",
"................"};
