/* XPM */
static char *resetarto[]={
"16 16 4 1",
". c None",
"b c #303030",
"a c #808080",
"# c #a0a0a0",
".##############.",
"#......a.......#",
"#......b.......#",
"#......b.......#",
"#....b.b.b.....#",
"#.b...bbb....b.#",
"#..b...b....b..#",
"#bbbba....abbbb#",
"#..b...b....b..#",
"#.b...bbb....b.#",
"#....b.b.b.....#",
"#......b.......#",
"#......b.......#",
"#......b.......#",
"#......a.......#",
".##############."};
