/* XPM */
static const char *shadingCursor[] = {
/* columns rows colors chars-per-pixel */
"22 22 7 1",
"  c Gray0",
". c Gray19",
"X c Gray0",
"o c #a0a0a4",
"O c gainsboro",
"+ c Gray100",
"@ c None",
/* pixels */
"@@@@@@@@@@@@@@@@@@@@@@",
"@@@@@@@@@@@@@@@@@@@@@@",
"@@@@@@@@@@@XX@@@@@@@@@",
"@@@@@@@@@@XXXX@@@@@@@@",
"@@@@@@@@@XX@@XX@@@@@@@",
"@@@@@@@@@XX @XX@@@@@@@",
"@@@@@@@@@XX+ XX@@@@@@@",
"@@@@@@@..XX++ X@@@@@@@",
"@@@@@...OXXO++ @@@@@@@",
"@@@@...OOX +O++ @@@@@@",
"@@@...oOO O +O++ @@@@@",
"@@o...ooOO OO+O++ @@@@",
"@@o....ooOOOOO+O++ @@@",
"@@o...o ooOOOOO+O+ @@@",
"@@o...oo ooOOOOO+ @@@@",
"@@o...@oo ooOOO+ @@@@@",
"@@oo..@@oo ooOO @@@@@@",
"@@@oo.@@@oo oo @@@@@@@",
"@@@@o@@@@@oo  @@@@@@@@",
"@@@@@@@@@@@oo@@@@@@@@@",
"@@@@@@@@@@@@@@@@@@@@@@",
"@@@@@@@@@@@@@@@@@@@@@@"
};
