/* XPM */
static char *viewmag_plus[]={
"16 16 46 1",
". c None",
"c c #020202",
"Q c #070707",
"w c #0b0b0b",
"b c #0e0e0e",
"o c #101010",
"# c #272727",
"a c #3f3f3f",
"R c #707070",
"g c #808080",
"M c #898989",
"J c #909090",
"B c #a4a4a4",
"I c #a5a5a5",
"L c #aaaaaa",
"n c #ababab",
"t c #acacac",
"N c #adadad",
"K c #b0b0b0",
"u c #b2b2b2",
"O c #b5b5b5",
"C c #b6b6b6",
"A c #bababa",
"H c #bbbbbb",
"F c #c0c0c0",
"m c #c2c2c2",
"G c #c3c3c3",
"E c #c4c4c4",
"s c #c7c7c7",
"z c #cacaca",
"f c #cecece",
"P c #d0d0d0",
"v c #d1d1d1",
"k c #d3d3d3",
"d c #d5d5d5",
"r c #d8d8d8",
"y c #dddddd",
"j c #dedede",
"x c #e0e0e0",
"e c #e1e1e1",
"D c #e3e3e3",
"q c #e7e7e7",
"p c #e9e9e9",
"i c #ebebeb",
"h c #eeeeee",
"l c #f5f5f5",
"....#ab.........",
"..acdefca.......",
".aghijfkga......",
".chlhjmn.c......",
"ofphqrstuvw.....",
"#xyjrzABCDw.....",
"wEfFGHIJKzc.....",
".cjunLJMjc......",
".agjFNOjgcL.....",
"..acPxzcaLcc....",
"....cQc.gcRGc...",
"..c......caRGc..",
"..c.......caRGc.",
"ccccc......caRGc",
"..c.........caRc",
"..c..........cc."};
