/* XPM */
static char *zhp[]={
"16 16 3 1",
". c None",
"a c #303030",
"# c #a0a0a0",
".##############.",
"#..............#",
"#..............#",
"#..............#",
"#...a......a...#",
"#..a........a..#",
"#.a..........a.#",
"#aaaaaa..aaaaaa#",
"#.a..........a.#",
"#..a........a..#",
"#...a......a...#",
"#..............#",
"#..............#",
"#..............#",
"#..............#",
".##############."};
