/* XPM */
static char *zvp[]={
"16 16 3 1",
". c None",
"a c #303030",
"# c #a0a0a0",
".##############.",
"#......a.......#",
"#.....aaa......#",
"#....a.a.a.....#",
"#...a..a..a....#",
"#......a.......#",
"#......a.......#",
"#..............#",
"#..............#",
"#......a.......#",
"#......a.......#",
"#...a..a..a....#",
"#....a.a.a.....#",
"#.....aaa......#",
"#......a.......#",
".##############."};
